<svg width="289" height="104" viewBox="0 0 289 104" fill="none" xmlns="http://www.w3.org/2000/svg">
<ellipse cx="27.2528" cy="58.9712" rx="21.7472" ry="22.0288" fill="#48C2FF"/>
<ellipse cx="10.1854" cy="40.2884" rx="10.1854" ry="10.3173" fill="#00AAFF"/>
<ellipse cx="24.5" cy="28.8558" rx="5.7809" ry="5.85577" fill="#4B7EFF"/>
<path d="M30.2809 73.9847C38.3056 71.7952 41.117 68.2721 42.9462 59.8672" stroke="white" stroke-width="5" stroke-linecap="round"/>
<path d="M59.7246 80C59.0866 80 58.6195 79.8519 58.3232 79.5557C58.027 79.2594 57.8789 78.8037 57.8789 78.1885V39.292C57.8789 38.654 58.027 38.1982 58.3232 37.9248C58.6195 37.6286 59.0866 37.4805 59.7246 37.4805H70.5938C73.556 37.4805 76.0511 37.9248 78.0791 38.8135C80.1071 39.7021 81.6338 40.9554 82.6592 42.5732C83.6846 44.1911 84.1973 46.071 84.1973 48.2129C84.1973 49.5345 83.8896 50.8561 83.2744 52.1777C82.6592 53.4766 81.8389 54.6045 80.8135 55.5615C79.7881 56.4958 78.6943 57.1224 77.5322 57.4414V57.6807C77.5322 57.5212 78.3184 57.8288 79.8906 58.6035C81.4629 59.3555 82.8757 60.4834 84.1289 61.9873C85.4049 63.4684 86.043 65.3939 86.043 67.7637C86.043 75.9212 80.7565 80 70.1836 80H59.7246ZM70.3203 55.8008C71.9154 55.8008 73.3509 55.4932 74.627 54.8779C75.903 54.2399 76.8942 53.3854 77.6006 52.3145C78.3298 51.2207 78.6943 50.013 78.6943 48.6914C78.6943 46.4128 78.0107 44.7493 76.6436 43.7012C75.2764 42.6302 73.0889 42.0947 70.0811 42.0947H63.2451V55.8008H70.3203ZM72.1318 75.3857C74.7979 75.3857 76.86 74.6908 78.3184 73.3008C79.7767 71.888 80.5059 69.9626 80.5059 67.5244C80.5059 65.2686 79.7083 63.5254 78.1133 62.2949C76.5182 61.0417 74.1712 60.415 71.0723 60.415H63.2451V75.3857H72.1318ZM110.208 80.3418C104.124 80.3418 99.487 78.4961 96.2969 74.8047C93.1068 71.1133 91.5117 65.7129 91.5117 58.6035C91.5117 51.5169 93.0954 46.1621 96.2627 42.5391C99.4528 38.8932 104.101 37.0703 110.208 37.0703C116.338 37.0703 120.997 38.8932 124.188 42.5391C127.378 46.1621 128.973 51.5169 128.973 58.6035C128.973 65.7129 127.378 71.1133 124.188 74.8047C120.997 78.4961 116.338 80.3418 110.208 80.3418ZM110.208 75.7275C114.492 75.7275 117.773 74.2692 120.052 71.3525C122.33 68.4131 123.47 64.1634 123.47 58.6035C123.47 53.0436 122.33 48.8395 120.052 45.9912C117.796 43.1201 114.515 41.6846 110.208 41.6846C105.924 41.6846 102.654 43.1201 100.398 45.9912C98.1426 48.8395 97.0146 53.0436 97.0146 58.6035C97.0146 64.1862 98.1426 68.4359 100.398 71.3525C102.654 74.2692 105.924 75.7275 110.208 75.7275ZM154.676 80.3418C148.569 80.3418 143.921 78.5872 140.73 75.0781C137.54 71.5462 135.945 66.2142 135.945 59.082C135.945 44.4076 142.496 37.0703 155.599 37.0703C157.513 37.0703 159.37 37.2754 161.17 37.6855C162.97 38.0729 164.428 38.5628 165.545 39.1553C166.661 39.7477 167.22 40.3174 167.22 40.8643C167.22 41.2061 167.094 41.6618 166.844 42.2314C166.616 42.8011 166.342 43.3024 166.023 43.7354C165.704 44.1683 165.42 44.3848 165.169 44.3848C165.055 44.3848 164.736 44.2367 164.212 43.9404C163.027 43.3024 161.785 42.7669 160.486 42.334C159.188 41.901 157.604 41.6846 155.735 41.6846C150.586 41.6846 146.917 43.1087 144.729 45.957C142.542 48.7826 141.448 52.9753 141.448 58.5352C141.448 63.776 142.462 67.9574 144.49 71.0791C146.541 74.1781 150.073 75.7275 155.086 75.7275C156.613 75.7275 158.082 75.6592 159.495 75.5225C160.931 75.363 162.07 75.1693 162.913 74.9414V62.6709H155.804C155.371 62.6709 155.052 62.5342 154.847 62.2607C154.664 61.9645 154.573 61.4974 154.573 60.8594V59.8682C154.573 59.2301 154.664 58.7744 154.847 58.501C155.052 58.2048 155.371 58.0566 155.804 58.0566H166.434C167.072 58.0566 167.539 58.2048 167.835 58.501C168.131 58.7744 168.279 59.2301 168.279 59.8682V75.9668C168.279 77.5391 167.003 78.667 164.451 79.3506C161.899 80.0114 158.641 80.3418 154.676 80.3418ZM195.555 80.3418C189.448 80.3418 184.799 78.5872 181.609 75.0781C178.419 71.5462 176.824 66.2142 176.824 59.082C176.824 44.4076 183.375 37.0703 196.478 37.0703C198.392 37.0703 200.249 37.2754 202.049 37.6855C203.849 38.0729 205.307 38.5628 206.424 39.1553C207.54 39.7477 208.099 40.3174 208.099 40.8643C208.099 41.2061 207.973 41.6618 207.723 42.2314C207.495 42.8011 207.221 43.3024 206.902 43.7354C206.583 44.1683 206.299 44.3848 206.048 44.3848C205.934 44.3848 205.615 44.2367 205.091 43.9404C203.906 43.3024 202.664 42.7669 201.365 42.334C200.066 41.901 198.483 41.6846 196.614 41.6846C191.465 41.6846 187.796 43.1087 185.608 45.957C183.421 48.7826 182.327 52.9753 182.327 58.5352C182.327 63.776 183.341 67.9574 185.369 71.0791C187.42 74.1781 190.952 75.7275 195.965 75.7275C197.492 75.7275 198.961 75.6592 200.374 75.5225C201.81 75.363 202.949 75.1693 203.792 74.9414V62.6709H196.683C196.25 62.6709 195.931 62.5342 195.726 62.2607C195.543 61.9645 195.452 61.4974 195.452 60.8594V59.8682C195.452 59.2301 195.543 58.7744 195.726 58.501C195.931 58.2048 196.25 58.0566 196.683 58.0566H207.312C207.951 58.0566 208.418 58.2048 208.714 58.501C209.01 58.7744 209.158 59.2301 209.158 59.8682V75.9668C209.158 77.5391 207.882 78.667 205.33 79.3506C202.778 80.0114 199.52 80.3418 195.555 80.3418ZM221.941 80C221.303 80 220.836 79.8519 220.54 79.5557C220.244 79.2594 220.096 78.8037 220.096 78.1885V38.6768C220.096 37.7653 220.916 37.3096 222.557 37.3096H223.035C224.653 37.3096 225.462 37.7653 225.462 38.6768V75.3857H242.176C242.609 75.3857 242.916 75.5339 243.099 75.8301C243.281 76.1035 243.372 76.5592 243.372 77.1973V78.1885C243.372 78.8037 243.281 79.2594 243.099 79.5557C242.916 79.8519 242.609 80 242.176 80H221.941ZM251.336 80C250.698 80 250.231 79.8519 249.935 79.5557C249.638 79.2594 249.49 78.8037 249.49 78.1885V39.292C249.49 38.654 249.638 38.1982 249.935 37.9248C250.231 37.6286 250.698 37.4805 251.336 37.4805H272.527C272.96 37.4805 273.268 37.6172 273.45 37.8906C273.655 38.1641 273.758 38.6312 273.758 39.292V40.2832C273.758 40.8984 273.655 41.3542 273.45 41.6504C273.268 41.9466 272.96 42.0947 272.527 42.0947H254.856V55.9375H270.716C271.149 55.9375 271.456 56.0856 271.639 56.3818C271.844 56.6781 271.946 57.1452 271.946 57.7832V58.7061C271.946 59.3441 271.844 59.8112 271.639 60.1074C271.456 60.3809 271.149 60.5176 270.716 60.5176H254.856V75.3857H272.596C273.029 75.3857 273.336 75.5339 273.519 75.8301C273.724 76.1035 273.826 76.5592 273.826 77.1973V78.1885C273.826 78.8037 273.724 79.2594 273.519 79.5557C273.336 79.8519 273.029 80 272.596 80H251.336Z" fill="black"/>
</svg>
