<svg width="24" height="24" viewBox="0 0 24 24" fill="none" xmlns="http://www.w3.org/2000/svg">
<path fill-rule="evenodd" clip-rule="evenodd" d="M12 12.75C9.65279 12.75 7.75 14.6528 7.75 17V18C7.75 18.4142 7.41421 18.75 7 18.75C6.58579 18.75 6.25 18.4142 6.25 18V17C6.25 13.8244 8.82436 11.25 12 11.25C15.1756 11.25 17.75 13.8244 17.75 17V18C17.75 18.4142 17.4142 18.75 17 18.75C16.5858 18.75 16.25 18.4142 16.25 18V17C16.25 14.6528 14.3472 12.75 12 12.75Z" fill="black"/>
<path fill-rule="evenodd" clip-rule="evenodd" d="M4 14.75C2.75736 14.75 1.75 15.7574 1.75 17V18C1.75 18.4142 1.41421 18.75 1 18.75C0.585786 18.75 0.25 18.4142 0.25 18V17C0.25 14.9289 1.92893 13.25 4 13.25V14.75Z" fill="black"/>
<path fill-rule="evenodd" clip-rule="evenodd" d="M20 14.75C21.2426 14.75 22.25 15.7574 22.25 17V18C22.25 18.4142 22.5858 18.75 23 18.75C23.4142 18.75 23.75 18.4142 23.75 18V17C23.75 14.9289 22.0711 13.25 20 13.25V14.75Z" fill="black"/>
<path fill-rule="evenodd" clip-rule="evenodd" d="M12 6.75C10.7574 6.75 9.75 7.75736 9.75 9C9.75 10.2426 10.7574 11.25 12 11.25C13.2426 11.25 14.25 10.2426 14.25 9C14.25 7.75736 13.2426 6.75 12 6.75ZM8.25 9C8.25 6.92893 9.92893 5.25 12 5.25C14.0711 5.25 15.75 6.92893 15.75 9C15.75 11.0711 14.0711 12.75 12 12.75C9.92893 12.75 8.25 11.0711 8.25 9Z" fill="black"/>
<path fill-rule="evenodd" clip-rule="evenodd" d="M4 10.75C3.30964 10.75 2.75 11.3096 2.75 12C2.75 12.6904 3.30964 13.25 4 13.25C4.69036 13.25 5.25 12.6904 5.25 12C5.25 11.3096 4.69036 10.75 4 10.75ZM1.25 12C1.25 10.4812 2.48122 9.25 4 9.25C5.51878 9.25 6.75 10.4812 6.75 12C6.75 13.5188 5.51878 14.75 4 14.75C2.48122 14.75 1.25 13.5188 1.25 12Z" fill="black"/>
<path fill-rule="evenodd" clip-rule="evenodd" d="M20 10.75C19.3096 10.75 18.75 11.3096 18.75 12C18.75 12.6904 19.3096 13.25 20 13.25C20.6904 13.25 21.25 12.6904 21.25 12C21.25 11.3096 20.6904 10.75 20 10.75ZM17.25 12C17.25 10.4812 18.4812 9.25 20 9.25C21.5188 9.25 22.75 10.4812 22.75 12C22.75 13.5188 21.5188 14.75 20 14.75C18.4812 14.75 17.25 13.5188 17.25 12Z" fill="black"/>
</svg>
