<svg width="24" height="24" viewBox="0 0 24 24" fill="none" xmlns="http://www.w3.org/2000/svg">
<path fill-rule="evenodd" clip-rule="evenodd" d="M12.4062 2.36953L12 3L11.5938 2.36953C11.8411 2.21016 12.1589 2.21016 12.4062 2.36953ZM11.5938 2.36953C11.5938 2.36953 11.5938 2.36953 12 3C12.4062 2.36953 12.4062 2.36953 12.4062 2.36953L12.4088 2.37118L12.4142 2.3747L12.4336 2.38735C12.4502 2.39824 12.4743 2.41404 12.5052 2.43459C12.5669 2.47567 12.6562 2.53574 12.7691 2.6135C12.9949 2.76896 13.3154 2.99542 13.6992 3.28243C14.4654 3.85548 15.4902 4.67461 16.518 5.65614C17.543 6.63504 18.5892 7.79244 19.3833 9.04424C20.1738 10.2903 20.75 11.6856 20.75 13.125C20.75 15.7589 19.9651 17.9397 18.4197 19.461C16.8758 20.9807 14.6668 21.75 12 21.75C9.33321 21.75 7.12417 20.9807 5.58031 19.461C4.03487 17.9397 3.25 15.7589 3.25 13.125C3.25 11.6856 3.82619 10.2903 4.61669 9.04424C5.41084 7.79244 6.45695 6.63504 7.48202 5.65614C8.50984 4.67461 9.53456 3.85548 10.3008 3.28243C10.6846 2.99542 11.0051 2.76896 11.2309 2.6135C11.3438 2.53574 11.4331 2.47567 11.4948 2.43459C11.5257 2.41404 11.5498 2.39824 11.5664 2.38735L11.5858 2.3747L11.5912 2.37118L11.5938 2.36953Z" fill="black"/>
<path fill-rule="evenodd" clip-rule="evenodd" d="M10.191 12.3766C9.34897 14.2489 8.75 16.0551 8.75 17.9999C8.75 18.9878 9.09551 19.4762 9.56637 19.7678C10.1072 20.1026 10.932 20.2499 12 20.2499C13.7394 20.2499 14.5867 19.685 14.8946 18.8621C15.1954 18.0579 15.1031 16.7531 14.2988 14.8502C14.112 15.0272 13.9275 15.1778 13.7447 15.3016C13.3061 15.5985 12.8267 15.7737 12.3295 15.7225C11.822 15.6703 11.4311 15.3966 11.1508 15.0662C10.8775 14.7441 10.6834 14.3412 10.5416 13.9338C10.3766 13.4594 10.2634 12.9217 10.191 12.3766Z" fill="white"/>
</svg>
