<svg width="24" height="24" viewBox="0 0 24 24" fill="none" xmlns="http://www.w3.org/2000/svg">
<g clip-path="url(#clip0_2_29)">
<path fill-rule="evenodd" clip-rule="evenodd" d="M11.9996 9.74951C10.757 9.74951 9.74963 10.7569 9.74963 11.9995C9.74963 13.2421 10.757 14.2495 11.9996 14.2495C13.2423 14.2495 14.2496 13.2421 14.2496 11.9995C14.2496 10.7569 13.2423 9.74951 11.9996 9.74951ZM8.24963 11.9995C8.24963 9.92844 9.92856 8.24951 11.9996 8.24951C14.0707 8.24951 15.7496 9.92844 15.7496 11.9995C15.7496 14.0706 14.0707 15.7495 11.9996 15.7495C9.92856 15.7495 8.24963 14.0706 8.24963 11.9995Z" fill="black"/>
<path fill-rule="evenodd" clip-rule="evenodd" d="M12.5303 0.46967L12 1L11.4697 0.46967C11.7626 0.176777 12.2374 0.176777 12.5303 0.46967ZM12.3292 8.66459L12.3299 8.66307L12.3361 8.65038C12.342 8.63828 12.3512 8.61899 12.3633 8.59299C12.3876 8.54098 12.4234 8.4623 12.4669 8.36081C12.554 8.15746 12.6712 7.86462 12.7885 7.51283C13.026 6.80026 13.25 5.88656 13.25 5C13.25 4.22544 12.8511 3.37867 12.376 2.66603C12.2476 2.47342 12.1188 2.29832 12 2.14608C11.8812 2.29832 11.7524 2.47342 11.624 2.66603C11.1489 3.37867 10.75 4.22544 10.75 5C10.75 5.88656 10.974 6.80026 11.2115 7.51283C11.3288 7.86462 11.446 8.15746 11.5331 8.36081C11.5766 8.4623 11.6124 8.54098 11.6367 8.59299C11.6488 8.61899 11.658 8.63828 11.6639 8.65038L11.6701 8.66307L11.6708 8.66459C11.6708 8.66451 11.6709 8.66467 11.6708 8.66459C11.6708 8.66447 11.6708 8.66459 11 9L10.3292 9.33541C10.5144 9.70589 10.9649 9.85606 11.3354 9.67082C11.7058 9.48562 11.8559 9.03503 11.6708 8.66459M11 9C10.3292 9.33541 10.3293 9.33556 10.3292 9.33541L10.3285 9.33399L10.3274 9.33183L10.3242 9.32533L10.3137 9.30372C10.3049 9.28555 10.2926 9.25992 10.2774 9.22732C10.247 9.16215 10.2046 9.06895 10.1544 8.95169C10.054 8.71754 9.92122 8.38538 9.78849 7.98717C9.52601 7.19974 9.25 6.11344 9.25 5C9.25 3.77456 9.85106 2.62133 10.376 1.83397C10.6465 1.4281 10.916 1.09135 11.1181 0.855656C11.2194 0.737417 11.3047 0.643583 11.3658 0.578105C11.3964 0.545341 11.421 0.519603 11.4386 0.501383L11.4597 0.479728L11.4661 0.473227L11.4683 0.471078L11.4697 0.46967C11.4698 0.469525 11.4697 0.46967 12 1C12.5303 0.46967 12.5302 0.469525 12.5303 0.46967L12.5317 0.471078L12.5339 0.473227L12.5403 0.479728L12.5614 0.501383C12.579 0.519603 12.6036 0.545341 12.6342 0.578105C12.6953 0.643583 12.7806 0.737417 12.8819 0.855656C13.084 1.09135 13.3535 1.4281 13.624 1.83397C14.1489 2.62133 14.75 3.77456 14.75 5C14.75 6.11344 14.474 7.19974 14.2115 7.98717C14.0788 8.38538 13.946 8.71754 13.8456 8.95169C13.7954 9.06895 13.753 9.16215 13.7226 9.22732C13.7074 9.25992 13.6951 9.28555 13.6863 9.30372L13.6758 9.32533L13.6726 9.33183L13.6715 9.33399L13.671 9.33512C13.6709 9.33527 13.6708 9.33541 13 9L13.671 9.33512C13.4857 9.70561 13.0351 9.85606 12.6646 9.67082C12.2943 9.48569 12.1445 9.03494 12.3292 8.66459C12.3291 8.66471 12.3292 8.66447 12.3292 8.66459M12.531 1.52969C12.5311 1.52958 12.5311 1.52956 12.531 1.52969V1.52969Z" fill="black"/>
<path fill-rule="evenodd" clip-rule="evenodd" d="M0.46967 11.4697L1 12L0.46967 12.5303C0.176777 12.2374 0.176777 11.7626 0.46967 11.4697ZM8.66459 11.6708L8.66307 11.6701L8.65038 11.6639C8.63828 11.658 8.61899 11.6488 8.59299 11.6367C8.54098 11.6124 8.4623 11.5766 8.36081 11.5331C8.15746 11.446 7.86462 11.3288 7.51283 11.2115C6.80026 10.974 5.88656 10.75 5 10.75C4.22544 10.75 3.37867 11.1489 2.66603 11.624C2.47342 11.7524 2.29832 11.8812 2.14608 12C2.29832 12.1188 2.47342 12.2476 2.66603 12.376C3.37867 12.8511 4.22544 13.25 5 13.25C5.88656 13.25 6.80026 13.026 7.51283 12.7885C7.86462 12.6712 8.15746 12.554 8.36081 12.4669C8.4623 12.4234 8.54098 12.3876 8.59299 12.3633C8.61899 12.3512 8.63828 12.342 8.65038 12.3361L8.66307 12.3299L8.66459 12.3292C8.66451 12.3292 8.66467 12.3291 8.66459 12.3292C8.66447 12.3292 8.66459 12.3292 9 13L9.33541 13.6708C9.70589 13.4856 9.85606 13.0351 9.67082 12.6646C9.48562 12.2942 9.03503 12.1441 8.66459 12.3292M9 13C9.33541 13.6708 9.33556 13.6707 9.33541 13.6708L9.33399 13.6715L9.33183 13.6726L9.32533 13.6758L9.30372 13.6863C9.28555 13.6951 9.25992 13.7074 9.22732 13.7226C9.16215 13.753 9.06895 13.7954 8.95169 13.8456C8.71754 13.946 8.38538 14.0788 7.98717 14.2115C7.19974 14.474 6.11344 14.75 5 14.75C3.77456 14.75 2.62133 14.1489 1.83397 13.624C1.4281 13.3535 1.09135 13.084 0.855656 12.8819C0.737417 12.7806 0.643583 12.6953 0.578105 12.6342C0.545341 12.6036 0.519603 12.579 0.501383 12.5614L0.479728 12.5403L0.473227 12.5339L0.471078 12.5317L0.46967 12.5303C0.469525 12.5302 0.46967 12.5303 1 12C0.46967 11.4697 0.469525 11.4698 0.46967 11.4697L0.471078 11.4683L0.473227 11.4661L0.479728 11.4597L0.501383 11.4386C0.519603 11.421 0.545341 11.3964 0.578105 11.3658C0.643583 11.3047 0.737417 11.2194 0.855656 11.1181C1.09135 10.916 1.4281 10.6465 1.83397 10.376C2.62133 9.85106 3.77456 9.25 5 9.25C6.11344 9.25 7.19974 9.52601 7.98717 9.78849C8.38538 9.92122 8.71754 10.054 8.95169 10.1544C9.06895 10.2046 9.16215 10.247 9.22732 10.2774C9.25992 10.2926 9.28555 10.3049 9.30372 10.3137L9.32533 10.3242L9.33183 10.3274L9.33399 10.3285L9.33512 10.329C9.33527 10.3291 9.33541 10.3292 9 11L9.33512 10.329C9.70561 10.5143 9.85606 10.9649 9.67082 11.3354C9.48569 11.7057 9.03494 11.8555 8.66459 11.6708C8.66471 11.6709 8.66447 11.6708 8.66459 11.6708M1.52969 11.469C1.52958 11.4689 1.52956 11.4689 1.52969 11.469V11.469Z" fill="black"/>
<path fill-rule="evenodd" clip-rule="evenodd" d="M12.5303 23.5303L12 23L11.4697 23.5303C11.7626 23.8232 12.2374 23.8232 12.5303 23.5303ZM12.3292 15.3354L12.3299 15.3369L12.3361 15.3496C12.342 15.3617 12.3512 15.381 12.3633 15.407C12.3876 15.459 12.4234 15.5377 12.4669 15.6392C12.554 15.8425 12.6712 16.1354 12.7885 16.4872C13.026 17.1997 13.25 18.1134 13.25 19C13.25 19.7746 12.8511 20.6213 12.376 21.334C12.2476 21.5266 12.1188 21.7017 12 21.8539C11.8812 21.7017 11.7524 21.5266 11.624 21.334C11.1489 20.6213 10.75 19.7746 10.75 19C10.75 18.1134 10.974 17.1997 11.2115 16.4872C11.3288 16.1354 11.446 15.8425 11.5331 15.6392C11.5766 15.5377 11.6124 15.459 11.6367 15.407C11.6488 15.381 11.658 15.3617 11.6639 15.3496L11.6701 15.3369L11.6708 15.3354C11.6708 15.3355 11.6709 15.3353 11.6708 15.3354C11.6708 15.3355 11.6708 15.3354 11 15L10.3292 14.6646C10.5144 14.2941 10.9649 14.1439 11.3354 14.3292C11.7058 14.5144 11.8559 14.965 11.6708 15.3354M11 15C10.3292 14.6646 10.3293 14.6644 10.3292 14.6646L10.3285 14.666L10.3274 14.6682L10.3242 14.6747L10.3137 14.6963C10.3049 14.7144 10.2926 14.7401 10.2774 14.7727C10.247 14.8379 10.2046 14.931 10.1544 15.0483C10.054 15.2825 9.92122 15.6146 9.78849 16.0128C9.52601 16.8003 9.25 17.8866 9.25 19C9.25 20.2254 9.85106 21.3787 10.376 22.166C10.6465 22.5719 10.916 22.9086 11.1181 23.1443C11.2194 23.2626 11.3047 23.3564 11.3658 23.4219C11.3964 23.4547 11.421 23.4804 11.4386 23.4986L11.4597 23.5203L11.4661 23.5268L11.4683 23.5289L11.4697 23.5303C11.4698 23.5305 11.4697 23.5303 12 23C12.5303 23.5303 12.5302 23.5305 12.5303 23.5303L12.5317 23.5289L12.5339 23.5268L12.5403 23.5203L12.5614 23.4986C12.579 23.4804 12.6036 23.4547 12.6342 23.4219C12.6953 23.3564 12.7806 23.2626 12.8819 23.1443C13.084 22.9086 13.3535 22.5719 13.624 22.166C14.1489 21.3787 14.75 20.2254 14.75 19C14.75 17.8866 14.474 16.8003 14.2115 16.0128C14.0788 15.6146 13.946 15.2825 13.8456 15.0483C13.7954 14.931 13.753 14.8379 13.7226 14.7727C13.7074 14.7401 13.6951 14.7144 13.6863 14.6963L13.6758 14.6747L13.6726 14.6682L13.6715 14.666L13.671 14.6649C13.6709 14.6647 13.6708 14.6646 13 15L13.671 14.6649C13.4857 14.2944 13.0351 14.1439 12.6646 14.3292C12.2943 14.5143 12.1445 14.9651 12.3292 15.3354C12.3291 15.3353 12.3292 15.3355 12.3292 15.3354M12.531 22.4703C12.5311 22.4704 12.5311 22.4704 12.531 22.4703V22.4703Z" fill="black"/>
<path fill-rule="evenodd" clip-rule="evenodd" d="M23.5303 11.4697L23 12L23.5303 12.5303C23.8232 12.2374 23.8232 11.7626 23.5303 11.4697ZM15.3354 11.6708L15.3369 11.6701L15.3496 11.6639C15.3617 11.658 15.381 11.6488 15.407 11.6367C15.459 11.6124 15.5377 11.5766 15.6392 11.5331C15.8425 11.446 16.1354 11.3288 16.4872 11.2115C17.1997 10.974 18.1134 10.75 19 10.75C19.7746 10.75 20.6213 11.1489 21.334 11.624C21.5266 11.7524 21.7017 11.8812 21.8539 12C21.7017 12.1188 21.5266 12.2476 21.334 12.376C20.6213 12.8511 19.7746 13.25 19 13.25C18.1134 13.25 17.1997 13.026 16.4872 12.7885C16.1354 12.6712 15.8425 12.554 15.6392 12.4669C15.5377 12.4234 15.459 12.3876 15.407 12.3633C15.381 12.3512 15.3617 12.342 15.3496 12.3361L15.3369 12.3299L15.3354 12.3292C15.3355 12.3292 15.3353 12.3291 15.3354 12.3292C15.3355 12.3292 15.3354 12.3292 15 13L14.6646 13.6708C14.2941 13.4856 14.1439 13.0351 14.3292 12.6646C14.5144 12.2942 14.965 12.1441 15.3354 12.3292M15 13C14.6646 13.6708 14.6644 13.6707 14.6646 13.6708L14.666 13.6715L14.6682 13.6726L14.6747 13.6758L14.6963 13.6863C14.7144 13.6951 14.7401 13.7074 14.7727 13.7226C14.8379 13.753 14.931 13.7954 15.0483 13.8456C15.2825 13.946 15.6146 14.0788 16.0128 14.2115C16.8003 14.474 17.8866 14.75 19 14.75C20.2254 14.75 21.3787 14.1489 22.166 13.624C22.5719 13.3535 22.9086 13.084 23.1443 12.8819C23.2626 12.7806 23.3564 12.6953 23.4219 12.6342C23.4547 12.6036 23.4804 12.579 23.4986 12.5614L23.5203 12.5403L23.5268 12.5339L23.5289 12.5317L23.5303 12.5303C23.5305 12.5302 23.5303 12.5303 23 12C23.5303 11.4697 23.5305 11.4698 23.5303 11.4697L23.5289 11.4683L23.5268 11.4661L23.5203 11.4597L23.4986 11.4386C23.4804 11.421 23.4547 11.3964 23.4219 11.3658C23.3564 11.3047 23.2626 11.2194 23.1443 11.1181C22.9086 10.916 22.5719 10.6465 22.166 10.376C21.3787 9.85106 20.2254 9.25 19 9.25C17.8866 9.25 16.8003 9.52601 16.0128 9.78849C15.6146 9.92122 15.2825 10.054 15.0483 10.1544C14.931 10.2046 14.8379 10.247 14.7727 10.2774C14.7401 10.2926 14.7144 10.3049 14.6963 10.3137L14.6747 10.3242L14.6682 10.3274L14.666 10.3285L14.6649 10.329C14.6647 10.3291 14.6646 10.3292 15 11L14.6649 10.329C14.2944 10.5143 14.1439 10.9649 14.3292 11.3354C14.5143 11.7057 14.9651 11.8555 15.3354 11.6708C15.3353 11.6709 15.3355 11.6708 15.3354 11.6708M22.4703 11.469C22.4704 11.4689 22.4704 11.4689 22.4703 11.469V11.469Z" fill="black"/>
<path fill-rule="evenodd" clip-rule="evenodd" d="M4.22182 3.47202L4.22182 4.22202L3.47182 4.22202C3.47182 3.8078 3.80761 3.47202 4.22182 3.47202ZM9.87427 9.40894L9.87372 9.40733L9.86912 9.39399C9.86471 9.38129 9.85759 9.36112 9.84779 9.33416C9.82818 9.28022 9.79785 9.19927 9.75684 9.09675C9.67468 8.89134 9.55047 8.60141 9.38463 8.26974C9.04873 7.59792 8.56103 6.79345 7.93413 6.16656C7.38643 5.61886 6.50559 5.3022 5.66573 5.13423C5.43874 5.08883 5.22388 5.05605 5.03222 5.03241C5.05586 5.22408 5.08864 5.43893 5.13403 5.66592C5.30201 6.50578 5.61867 7.38663 6.16637 7.93433C6.79326 8.56122 7.59773 9.04892 8.26954 9.38483C8.60121 9.55066 8.89114 9.67487 9.09656 9.75704C9.19908 9.79805 9.28002 9.82837 9.33396 9.84799C9.36092 9.85779 9.38109 9.8649 9.39379 9.86932L9.40714 9.87392L9.40874 9.87447C9.40866 9.87444 9.40882 9.87449 9.40874 9.87447C9.40862 9.87442 9.40874 9.87447 9.17157 10.586L8.9344 11.2975C9.32736 11.4285 9.7521 11.2161 9.88308 10.8231C10.014 10.4303 9.80153 10.0055 9.40874 9.87447M9.17157 10.586C8.9344 11.2975 8.93455 11.2975 8.9344 11.2975L8.93289 11.297L8.93061 11.2962L8.92374 11.2939L8.90101 11.2861C8.88195 11.2794 8.85516 11.27 8.82135 11.2577C8.75376 11.2331 8.65792 11.1971 8.53947 11.1498C8.30295 11.0551 7.97416 10.9142 7.59872 10.7265C6.85632 10.3553 5.89303 9.78231 5.10571 8.99499C4.23919 8.12847 3.84874 6.888 3.66316 5.96009C3.5675 5.48177 3.51994 5.05309 3.49613 4.74358C3.48418 4.58831 3.47812 4.46167 3.47503 4.37216C3.47348 4.32737 3.47268 4.29177 3.47227 4.26642L3.47189 4.23617L3.47183 4.22704L3.47182 4.22401L3.47182 4.22202C3.47182 4.22181 3.47182 4.22202 4.22182 4.22202C4.22182 3.47202 4.22162 3.47202 4.22182 3.47202L4.22381 3.47202L4.22684 3.47203L4.23598 3.47208L4.26623 3.47246C4.29158 3.47288 4.32717 3.47368 4.37196 3.47522C4.46148 3.47831 4.58811 3.48438 4.74338 3.49632C5.0529 3.52013 5.48157 3.56769 5.9599 3.66336C6.88781 3.84894 8.12828 4.23939 8.99479 5.1059C9.78211 5.89322 10.3551 6.85652 10.7263 7.59892C10.914 7.97435 11.0549 8.30314 11.1496 8.53967C11.1969 8.65812 11.2329 8.75395 11.2575 8.82154C11.2698 8.85535 11.2792 8.88214 11.2859 8.90121L11.2937 8.92394L11.296 8.93081L11.2968 8.93309L11.2972 8.93429C11.2972 8.93445 11.2973 8.93459 10.5858 9.17176L11.2972 8.93429C11.4282 9.32725 11.2159 9.75229 10.823 9.88328C10.4302 10.0142 10.0055 9.80143 9.87427 9.40894C9.87431 9.40907 9.87423 9.4088 9.87427 9.40894M4.97182 4.22111C4.97182 4.22096 4.97182 4.22093 4.97182 4.22111V4.22111Z" fill="black"/>
<path fill-rule="evenodd" clip-rule="evenodd" d="M3.47177 19.7782L4.22177 19.7782L4.22177 20.5282C3.80756 20.5282 3.47177 20.1924 3.47177 19.7782ZM9.40869 14.1257L9.40709 14.1263L9.39374 14.1309C9.38104 14.1353 9.36087 14.1424 9.33391 14.1522C9.27997 14.1718 9.19903 14.2021 9.09651 14.2431C8.89109 14.3253 8.60116 14.4495 8.26949 14.6154C7.59768 14.9513 6.79321 15.439 6.16632 16.0659C5.61862 16.6136 5.30196 17.4944 5.13399 18.3343C5.08859 18.5613 5.05581 18.7761 5.03217 18.9678C5.22383 18.9441 5.43869 18.9114 5.66568 18.866C6.50554 18.698 7.38638 18.3813 7.93408 17.8336C8.56098 17.2067 9.04868 16.4023 9.38458 15.7304C9.55042 15.3988 9.67463 15.1088 9.75679 14.9034C9.7978 14.8009 9.82813 14.72 9.84774 14.666C9.85755 14.6391 9.86466 14.6189 9.86907 14.6062L9.87367 14.5929L9.87422 14.5913C9.87419 14.5913 9.87425 14.5912 9.87422 14.5913C9.87418 14.5914 9.87422 14.5913 10.5857 14.8284L11.2972 15.0656C11.4282 14.6726 11.2159 14.2479 10.8229 14.1169C10.43 13.986 10.0053 14.1985 9.87422 14.5913M10.5857 14.8284C11.2972 15.0656 11.2973 15.0654 11.2972 15.0656L11.2967 15.0671L11.296 15.0694L11.2936 15.0762L11.2858 15.099C11.2792 15.118 11.2697 15.1448 11.2574 15.1786C11.2329 15.2462 11.1969 15.3421 11.1495 15.4605C11.0549 15.697 10.9139 16.0258 10.7262 16.4013C10.355 17.1437 9.78206 18.107 8.99474 18.8943C8.12823 19.7608 6.88776 20.1512 5.95985 20.3368C5.48152 20.4325 5.05285 20.4801 4.74333 20.5039C4.58806 20.5158 4.46143 20.5219 4.37192 20.525C4.32713 20.5265 4.29153 20.5273 4.26618 20.5277L4.23593 20.5281L4.22679 20.5282L4.22376 20.5282L4.22177 20.5282C4.22157 20.5282 4.22177 20.5282 4.22177 19.7782C3.47177 19.7782 3.47177 19.7784 3.47177 19.7782L3.47177 19.7762L3.47178 19.7732L3.47184 19.764L3.47222 19.7338C3.47263 19.7084 3.47344 19.6728 3.47498 19.628C3.47807 19.5385 3.48413 19.4119 3.49608 19.2566C3.51989 18.9471 3.56745 18.5184 3.66311 18.0401C3.84869 17.1122 4.23914 15.8717 5.10566 15.0052C5.89298 14.2179 6.85627 13.6449 7.59867 13.2737C7.97411 13.086 8.3029 12.945 8.53942 12.8504C8.65788 12.8031 8.75371 12.7671 8.8213 12.7425C8.85511 12.7302 8.8819 12.7208 8.90096 12.7141L8.92369 12.7063L8.93056 12.704L8.93285 12.7032L8.93405 12.7028C8.9342 12.7027 8.93435 12.7027 9.17152 13.4142L8.93405 12.7028C9.327 12.5718 9.75205 12.7841 9.88303 13.177C10.0139 13.5698 9.80119 13.9945 9.40869 14.1257C9.40882 14.1257 9.40856 14.1258 9.40869 14.1257M4.22086 19.0282C4.22071 19.0282 4.22068 19.0282 4.22086 19.0282V19.0282Z" fill="black"/>
<path fill-rule="evenodd" clip-rule="evenodd" d="M20.5282 19.7782L19.7782 19.7782L19.7782 20.5282C20.1924 20.5282 20.5282 20.1924 20.5282 19.7782ZM14.5913 14.1257L14.5929 14.1263L14.6063 14.1309C14.619 14.1353 14.6391 14.1424 14.6661 14.1522C14.72 14.1718 14.801 14.2021 14.9035 14.2431C15.1089 14.3253 15.3988 14.4495 15.7305 14.6154C16.4023 14.9513 17.2068 15.439 17.8337 16.0659C18.3814 16.6136 18.698 17.4944 18.866 18.3343C18.9114 18.5613 18.9442 18.7761 18.9678 18.9678C18.7762 18.9441 18.5613 18.9114 18.3343 18.866C17.4945 18.698 16.6136 18.3813 16.0659 17.8336C15.439 17.2067 14.9513 16.4023 14.6154 15.7304C14.4496 15.3988 14.3254 15.1088 14.2432 14.9034C14.2022 14.8009 14.1719 14.72 14.1523 14.666C14.1425 14.6391 14.1353 14.6189 14.1309 14.6062L14.1263 14.5929L14.1258 14.5913C14.1258 14.5913 14.1258 14.5912 14.1258 14.5913C14.1258 14.5914 14.1258 14.5913 13.4143 14.8284L12.7028 15.0656C12.5718 14.6726 12.7841 14.2479 13.1771 14.1169C13.57 13.986 13.9947 14.1985 14.1258 14.5913M13.4143 14.8284C12.7028 15.0656 12.7027 15.0654 12.7028 15.0656L12.7033 15.0671L12.704 15.0694L12.7064 15.0762L12.7142 15.099C12.7208 15.118 12.7303 15.1448 12.7426 15.1786C12.7671 15.2462 12.8031 15.3421 12.8505 15.4605C12.9451 15.697 13.0861 16.0258 13.2738 16.4013C13.645 17.1437 14.2179 18.107 15.0053 18.8943C15.8718 19.7608 17.1122 20.1512 18.0401 20.3368C18.5185 20.4325 18.9472 20.4801 19.2567 20.5039C19.4119 20.5158 19.5386 20.5219 19.6281 20.525C19.6729 20.5265 19.7085 20.5273 19.7338 20.5277L19.7641 20.5281L19.7732 20.5282L19.7762 20.5282L19.7782 20.5282C19.7784 20.5282 19.7782 20.5282 19.7782 19.7782C20.5282 19.7782 20.5282 19.7784 20.5282 19.7782L20.5282 19.7762L20.5282 19.7732L20.5282 19.764L20.5278 19.7338C20.5274 19.7084 20.5266 19.6728 20.525 19.628C20.5219 19.5385 20.5159 19.4119 20.5039 19.2566C20.4801 18.9471 20.4326 18.5184 20.3369 18.0401C20.1513 17.1122 19.7609 15.8717 18.8943 15.0052C18.107 14.2179 17.1437 13.6449 16.4013 13.2737C16.0259 13.086 15.6971 12.945 15.4606 12.8504C15.3421 12.8031 15.2463 12.7671 15.1787 12.7425C15.1449 12.7302 15.1181 12.7208 15.099 12.7141L15.0763 12.7063L15.0694 12.704L15.0672 12.7032L15.066 12.7028C15.0658 12.7027 15.0657 12.7027 14.8285 13.4142L15.066 12.7028C14.673 12.5718 14.248 12.7841 14.117 13.177C13.9861 13.5698 14.1988 13.9945 14.5913 14.1257C14.5912 14.1257 14.5914 14.1258 14.5913 14.1257M19.7791 19.0282C19.7793 19.0282 19.7793 19.0282 19.7791 19.0282V19.0282Z" fill="black"/>
<path fill-rule="evenodd" clip-rule="evenodd" d="M19.7782 3.47202L19.7782 4.22202L20.5282 4.22202C20.5282 3.8078 20.1924 3.47202 19.7782 3.47202ZM14.1257 9.40894L14.1263 9.40733L14.1309 9.39399C14.1353 9.38129 14.1424 9.36112 14.1522 9.33416C14.1718 9.28022 14.2021 9.19927 14.2432 9.09675C14.3253 8.89134 14.4495 8.60141 14.6154 8.26974C14.9513 7.59792 15.439 6.79345 16.0659 6.16656C16.6136 5.61886 17.4944 5.3022 18.3343 5.13423C18.5613 5.08883 18.7761 5.05605 18.9678 5.03241C18.9441 5.22408 18.9114 5.43893 18.866 5.66592C18.698 6.50578 18.3813 7.38663 17.8336 7.93433C17.2067 8.56122 16.4023 9.04892 15.7305 9.38483C15.3988 9.55066 15.1089 9.67487 14.9034 9.75704C14.8009 9.79805 14.72 9.82837 14.666 9.84799C14.6391 9.85779 14.6189 9.8649 14.6062 9.86932L14.5929 9.87392L14.5913 9.87447C14.5913 9.87444 14.5912 9.87449 14.5913 9.87447C14.5914 9.87442 14.5913 9.87447 14.8284 10.586L15.0656 11.2975C14.6726 11.4285 14.2479 11.2161 14.1169 10.8231C13.986 10.4303 14.1985 10.0055 14.5913 9.87447M14.8284 10.586C15.0656 11.2975 15.0654 11.2975 15.0656 11.2975L15.0671 11.297L15.0694 11.2962L15.0763 11.2939L15.099 11.2861C15.1181 11.2794 15.1448 11.27 15.1787 11.2577C15.2462 11.2331 15.3421 11.1971 15.4605 11.1498C15.6971 11.0551 16.0258 10.9142 16.4013 10.7265C17.1437 10.3553 18.107 9.78231 18.8943 8.99499C19.7608 8.12847 20.1513 6.888 20.3368 5.96009C20.4325 5.48177 20.4801 5.05309 20.5039 4.74358C20.5158 4.58831 20.5219 4.46167 20.525 4.37216C20.5265 4.32737 20.5273 4.29177 20.5277 4.26642L20.5281 4.23617L20.5282 4.22704L20.5282 4.22401L20.5282 4.22202C20.5282 4.22181 20.5282 4.22202 19.7782 4.22202C19.7782 3.47202 19.7784 3.47202 19.7782 3.47202L19.7762 3.47202L19.7732 3.47203L19.764 3.47208L19.7338 3.47246C19.7084 3.47288 19.6728 3.47368 19.628 3.47522C19.5385 3.47831 19.4119 3.48438 19.2566 3.49632C18.9471 3.52013 18.5184 3.56769 18.0401 3.66336C17.1122 3.84894 15.8717 4.23939 15.0052 5.1059C14.2179 5.89322 13.6449 6.85652 13.2737 7.59892C13.086 7.97435 12.9451 8.30314 12.8504 8.53967C12.8031 8.65812 12.7671 8.75395 12.7425 8.82154C12.7302 8.85535 12.7208 8.88214 12.7141 8.90121L12.7063 8.92394L12.704 8.93081L12.7032 8.93309L12.7028 8.93429C12.7028 8.93445 12.7027 8.93459 13.4142 9.17176L12.7028 8.93429C12.5718 9.32725 12.7841 9.75229 13.177 9.88328C13.5698 10.0142 13.9945 9.80143 14.1257 9.40894C14.1257 9.40907 14.1258 9.4088 14.1257 9.40894M19.0282 4.22111C19.0282 4.22096 19.0282 4.22093 19.0282 4.22111V4.22111Z" fill="black"/>
</g>
<defs>
<clipPath id="clip0_2_29">
<rect width="24" height="24" fill="white"/>
</clipPath>
</defs>
</svg>
