<svg width="24" height="24" viewBox="0 0 24 24" fill="none" xmlns="http://www.w3.org/2000/svg">
<path fill-rule="evenodd" clip-rule="evenodd" d="M10.1627 2.26786C9.75837 2.178 9.35774 2.43295 9.26788 2.8373L5.26788 20.8373C5.17803 21.2417 5.43297 21.6423 5.83732 21.7321C6.24167 21.822 6.64231 21.567 6.73216 21.1627L10.7322 3.1627C10.822 2.75835 10.5671 2.35772 10.1627 2.26786Z" fill="black"/>
<path fill-rule="evenodd" clip-rule="evenodd" d="M21.25 16C21.25 15.5858 20.9142 15.25 20.5 15.25H2.5C2.08579 15.25 1.75 15.5858 1.75 16C1.75 16.4142 2.08579 16.75 2.5 16.75H20.5C20.9142 16.75 21.25 16.4142 21.25 16Z" fill="black"/>
<path fill-rule="evenodd" clip-rule="evenodd" d="M22.75 7C22.75 6.58579 22.4142 6.25 22 6.25H4C3.58579 6.25 3.25 6.58579 3.25 7C3.25 7.41421 3.58579 7.75 4 7.75H22C22.4142 7.75 22.75 7.41421 22.75 7Z" fill="black"/>
<path fill-rule="evenodd" clip-rule="evenodd" d="M18.1627 2.26786C17.7584 2.178 17.3577 2.43295 17.2679 2.8373L13.2679 20.8373C13.178 21.2417 13.433 21.6423 13.8373 21.7321C14.2417 21.822 14.6423 21.567 14.7322 21.1627L18.7322 3.1627C18.822 2.75835 18.5671 2.35772 18.1627 2.26786Z" fill="black"/>
</svg>
