<svg width="24" height="24" viewBox="0 0 24 24" fill="none" xmlns="http://www.w3.org/2000/svg">
<path fill-rule="evenodd" clip-rule="evenodd" d="M9.53807 3.61509C11.0512 2.69801 12.9487 2.69801 14.4619 3.61509L19.4619 6.64539C20.8824 7.50628 21.75 9.04661 21.75 10.7076V17C21.75 19.6233 19.6234 21.75 17 21.75H7C4.37665 21.75 2.25 19.6233 2.25 17V10.7076C2.25 9.04661 3.1176 7.50628 4.53806 6.64539L9.53807 3.61509ZM13.6845 4.89788C12.6491 4.27041 11.3509 4.27041 10.3155 4.89788L5.31552 7.92819C4.34362 8.51722 3.75 9.57112 3.75 10.7076V17C3.75 18.7949 5.20508 20.25 7 20.25H8.25V17C8.25 14.9289 9.92893 13.25 12 13.25C14.0711 13.25 15.75 14.9289 15.75 17V20.25H17C18.7949 20.25 20.25 18.7949 20.25 17V10.7076C20.25 9.57113 19.6564 8.51721 18.6845 7.92819L13.6845 4.89788ZM14.25 20.25V17C14.25 15.7574 13.2426 14.75 12 14.75C10.7574 14.75 9.75 15.7574 9.75 17V20.25H14.25Z" fill="black"/>
<path d="M10.3155 4.89788C11.3509 4.27041 12.6491 4.27041 13.6845 4.89788L18.6845 7.92819C19.6564 8.51721 20.25 9.57113 20.25 10.7076V17C20.25 18.7949 18.7949 20.25 17 20.25H15.75V17C15.75 14.9289 14.0711 13.25 12 13.25C9.92893 13.25 8.25 14.9289 8.25 17V20.25H7C5.20508 20.25 3.75 18.7949 3.75 17V10.7076C3.75 9.57112 4.34362 8.51722 5.31552 7.92819L10.3155 4.89788Z" fill="black"/>
</svg>
