<svg width="24" height="24" viewBox="0 0 24 24" fill="none" xmlns="http://www.w3.org/2000/svg">
<path fill-rule="evenodd" clip-rule="evenodd" d="M8.85714 7.75L7.14286 7.75001C4.69635 7.75001 2.75 9.67184 2.75 11.9976C2.75 14.0025 4.19348 15.705 6.1615 16.139C6.47631 16.2084 6.80467 16.2452 7.14286 16.2452C7.55707 16.2452 7.89286 16.581 7.89286 16.9952C7.89286 17.4095 7.55707 17.7452 7.14286 17.7452C6.69546 17.7452 6.25881 17.6965 5.8385 17.6038C3.22597 17.0277 1.25 14.7495 1.25 11.9976C1.25 8.8032 3.90872 6.25001 7.14286 6.25001L8.85714 6.25C12.1014 6.25 14.75 9.09582 14.75 11.9976C14.75 12.4118 14.4142 12.7476 14 12.7476C13.5858 12.7476 13.25 12.4118 13.25 11.9976C13.25 9.91598 11.2647 7.75 8.85714 7.75Z" fill="black"/>
<path fill-rule="evenodd" clip-rule="evenodd" d="M15.1429 16.2451L16.8571 16.2451C19.3036 16.2451 21.25 14.3233 21.25 11.9975C21.25 9.99259 19.8065 8.29007 17.8385 7.85611C17.5237 7.7867 17.1953 7.74987 16.8571 7.74987C16.4429 7.74987 16.1071 7.41408 16.1071 6.99987C16.1071 6.58565 16.4429 6.24987 16.8571 6.24987C17.3045 6.24987 17.7412 6.29862 18.1615 6.3913C20.774 6.96737 22.75 9.24557 22.75 11.9975C22.75 15.1919 20.0913 17.7451 16.8571 17.7451L15.1429 17.7451C11.8986 17.7451 9.25 14.8993 9.25 11.9975C9.25 11.5833 9.58579 11.2475 10 11.2475C10.4142 11.2475 10.75 11.5833 10.75 11.9975C10.75 14.0791 12.7353 16.2451 15.1429 16.2451Z" fill="black"/>
</svg>
