<svg width="24" height="24" viewBox="0 0 24 24" fill="none" xmlns="http://www.w3.org/2000/svg">
<path fill-rule="evenodd" clip-rule="evenodd" d="M13.75 21C13.75 21.4142 13.4142 21.75 13 21.75H3.6C2.85441 21.75 2.25 21.1456 2.25 20.4V3.6C2.25 2.85441 2.85442 2.25 3.6 2.25H20.4C21.1456 2.25 21.75 2.85442 21.75 3.6V13C21.75 13.4142 21.4142 13.75 21 13.75C20.5858 13.75 20.25 13.4142 20.25 13V3.75H3.75V20.25H13C13.4142 20.25 13.75 20.5858 13.75 21Z" fill="black"/>
<path fill-rule="evenodd" clip-rule="evenodd" d="M9.70451 12.3106C9.89838 12.2276 10.1183 12.2299 10.3103 12.3172L15.8103 14.8172C16.1874 14.9886 16.3541 15.4333 16.1827 15.8103C16.0113 16.1874 15.5667 16.3542 15.1896 16.1828L9.99104 13.8198L3.29539 16.6894C2.91467 16.8525 2.47376 16.6762 2.31059 16.2954C2.14742 15.9147 2.32379 15.4738 2.70451 15.3106L9.70451 12.3106Z" fill="black"/>
<path fill-rule="evenodd" clip-rule="evenodd" d="M16 6.75C16.6904 6.75 17.25 7.30964 17.25 8C17.25 8.69036 16.6904 9.25 16 9.25C15.3096 9.25 14.75 8.69036 14.75 8C14.75 7.30964 15.3096 6.75 16 6.75ZM18.75 8C18.75 6.48122 17.5188 5.25 16 5.25C14.4812 5.25 13.25 6.48122 13.25 8C13.25 9.51878 14.4812 10.75 16 10.75C17.5188 10.75 18.75 9.51878 18.75 8Z" fill="black"/>
<path fill-rule="evenodd" clip-rule="evenodd" d="M19 15.25C19.4142 15.25 19.75 15.5858 19.75 16V18.25H22C22.4142 18.25 22.75 18.5858 22.75 19C22.75 19.4142 22.4142 19.75 22 19.75H19.75V22C19.75 22.4142 19.4142 22.75 19 22.75C18.5858 22.75 18.25 22.4142 18.25 22V19.75H16C15.5858 19.75 15.25 19.4142 15.25 19C15.25 18.5858 15.5858 18.25 16 18.25H18.25V16C18.25 15.5858 18.5858 15.25 19 15.25Z" fill="black"/>
</svg>
