<svg width="24" height="24" viewBox="0 0 24 24" fill="none" xmlns="http://www.w3.org/2000/svg">
<path d="M19 2.25C20.5188 2.25 21.75 3.48122 21.75 5V15C21.75 16.5188 20.5188 17.75 19 17.75H7.96094C7.58148 17.7501 7.22253 17.9225 6.98535 18.2188L4.6543 21.1328C3.85714 22.1293 2.25 21.5653 2.25 20.2891V5C2.25 3.48122 3.48122 2.25 5 2.25H19ZM12.5117 12.4414C12.204 12.1645 11.7303 12.1896 11.4531 12.4971L11.4424 12.5078C11.1652 12.8156 11.1903 13.2901 11.498 13.5674C11.8058 13.8446 12.2804 13.8194 12.5576 13.5117L12.5674 13.501C12.8445 13.1932 12.8194 12.7186 12.5117 12.4414ZM12 6.25C11.5858 6.25 11.25 6.58579 11.25 7V9C11.25 9.41421 11.5858 9.75 12 9.75C12.4142 9.75 12.75 9.41421 12.75 9V7C12.75 6.58579 12.4142 6.25 12 6.25Z" fill="black"/>
</svg>
