<svg width="24" height="24" viewBox="0 0 24 24" fill="none" xmlns="http://www.w3.org/2000/svg">
<path fill-rule="evenodd" clip-rule="evenodd" d="M14.25 19C14.25 16.9289 15.9289 15.25 18 15.25C20.0711 15.25 21.75 16.9289 21.75 19C21.75 21.0711 20.0711 22.75 18 22.75C15.9289 22.75 14.25 21.0711 14.25 19Z" fill="black"/>
<path fill-rule="evenodd" clip-rule="evenodd" d="M14.25 5C14.25 2.92893 15.9289 1.25 18 1.25C20.0711 1.25 21.75 2.92893 21.75 5C21.75 7.07107 20.0711 8.75 18 8.75C15.9289 8.75 14.25 7.07107 14.25 5Z" fill="black"/>
<path fill-rule="evenodd" clip-rule="evenodd" d="M2.25 12C2.25 9.92893 3.92893 8.25 6 8.25C8.07107 8.25 9.75 9.92893 9.75 12C9.75 14.0711 8.07107 15.75 6 15.75C3.92893 15.75 2.25 14.0711 2.25 12Z" fill="black"/>
<path fill-rule="evenodd" clip-rule="evenodd" d="M8.12793 9.84882L15.1279 5.84882L15.8721 7.15118L8.87214 11.1512L8.12793 9.84882Z" fill="black"/>
<path fill-rule="evenodd" clip-rule="evenodd" d="M15.1279 18.1512L8.12793 14.1512L8.87214 12.8488L15.8721 16.8488L15.1279 18.1512Z" fill="black"/>
</svg>
