<svg width="24" height="24" viewBox="0 0 24 24" fill="none" xmlns="http://www.w3.org/2000/svg">
<path fill-rule="evenodd" clip-rule="evenodd" d="M11.9144 3.27202C11.8948 3.28355 11.8743 3.30194 11.8568 3.33726L9.25924 8.56947C9.14975 8.79001 8.93899 8.94276 8.69533 8.97817L2.88648 9.82237C2.75137 9.84201 2.70979 9.99811 2.7976 10.0832L7.00011 14.153C7.17823 14.3255 7.25958 14.5749 7.21743 14.8193L6.22563 20.5689C6.21902 20.6072 6.22477 20.6329 6.23317 20.6523C6.24283 20.6746 6.26073 20.6982 6.28736 20.7174C6.31399 20.7367 6.34309 20.747 6.36946 20.7494C6.39279 20.7516 6.42154 20.7486 6.45804 20.7295L11.6526 18.0134C11.8703 17.8995 12.1299 17.8995 12.3476 18.0134L17.5421 20.7295C17.5786 20.7486 17.6074 20.7516 17.6307 20.7494C17.6571 20.747 17.6862 20.7367 17.7128 20.7174C17.7395 20.6982 17.7574 20.6746 17.767 20.6523C17.7754 20.6329 17.7812 20.6072 17.7746 20.5689L16.7828 14.8193C16.7406 14.5749 16.822 14.3255 17.0001 14.153L21.2026 10.0832C21.2904 9.99811 21.2488 9.84201 21.1137 9.82237L15.3049 8.97817C15.0612 8.94276 14.8504 8.79001 14.7409 8.56947L12.1434 3.33726C12.1259 3.30194 12.1054 3.28355 12.0858 3.27202C12.0635 3.25889 12.0338 3.25 12.0001 3.25C11.9664 3.25 11.9367 3.25889 11.9144 3.27202ZM10.5132 2.67026C11.1224 1.44325 12.8778 1.44325 13.487 2.67026L15.9097 7.55031L21.3294 8.33797C22.6849 8.53496 23.2374 10.2006 22.2461 11.1607L18.3283 14.9548L19.2527 20.3139C19.4874 21.6742 18.0557 22.6907 16.8471 22.0587L12.0001 19.5243L7.15309 22.0587C5.94451 22.6907 4.51282 21.6742 4.74746 20.3139L5.67189 14.9548L1.75409 11.1607C0.762747 10.2006 1.31526 8.53496 2.67075 8.33797L8.09052 7.55031L10.5132 2.67026Z" fill="black"/>
</svg>
