<svg width="24" height="24" viewBox="0 0 24 24" fill="none" xmlns="http://www.w3.org/2000/svg">
<path d="M8.58737 8.23597L11.1849 3.00376C11.5183 2.33208 12.4817 2.33208 12.8151 3.00376L15.4126 8.23597L21.2215 9.08017C21.9668 9.18848 22.2638 10.0994 21.7243 10.6219L17.5217 14.6918L18.5135 20.4414C18.6409 21.1798 17.8614 21.7428 17.1945 21.3941L12 18.678L6.80547 21.3941C6.1386 21.7428 5.35909 21.1798 5.48645 20.4414L6.47825 14.6918L2.27575 10.6219C1.73617 10.0994 2.03322 9.18848 2.77852 9.08017L8.58737 8.23597Z" fill="black"/>
<path fill-rule="evenodd" clip-rule="evenodd" d="M11.9143 3.27202C11.8947 3.28355 11.8742 3.30194 11.8566 3.33726L9.25912 8.56947C9.14963 8.79001 8.93887 8.94276 8.69521 8.97817L2.88636 9.82237C2.75125 9.84201 2.70967 9.99811 2.79748 10.0832L6.99998 14.153C7.17811 14.3255 7.25946 14.5749 7.21731 14.8193L6.22551 20.5689C6.2189 20.6072 6.22465 20.6329 6.23304 20.6523C6.24271 20.6746 6.26061 20.6982 6.28724 20.7174C6.31387 20.7367 6.34297 20.747 6.36934 20.7494C6.39267 20.7516 6.42142 20.7486 6.45792 20.7295L11.6524 18.0134C11.8701 17.8995 12.1298 17.8995 12.3475 18.0134L17.542 20.7295C17.5785 20.7486 17.6073 20.7516 17.6306 20.7494C17.657 20.747 17.6861 20.7367 17.7127 20.7174C17.7393 20.6982 17.7572 20.6746 17.7669 20.6523C17.7753 20.6329 17.781 20.6072 17.7744 20.5689L16.7826 14.8193C16.7405 14.5749 16.8218 14.3255 17 14.153L21.2025 10.0832C21.2903 9.99811 21.2487 9.84201 21.1136 9.82237L15.3047 8.97817C15.0611 8.94276 14.8503 8.79001 14.7408 8.56947L12.1433 3.33726C12.1258 3.30194 12.1052 3.28355 12.0857 3.27202C12.0634 3.25889 12.0337 3.25 12 3.25C11.9662 3.25 11.9365 3.25889 11.9143 3.27202ZM10.5131 2.67026C11.1222 1.44325 12.8777 1.44325 13.4869 2.67026L15.9095 7.55031L21.3293 8.33797C22.6848 8.53496 23.2373 10.2006 22.246 11.1607L18.3282 14.9548L19.2526 20.3139C19.4872 21.6742 18.0556 22.6907 16.847 22.0587L12 19.5243L7.15296 22.0587C5.94439 22.6907 4.5127 21.6742 4.74734 20.3139L5.67177 14.9548L1.75396 11.1607C0.762625 10.2006 1.31514 8.53496 2.67063 8.33797L8.0904 7.55031L10.5131 2.67026Z" fill="black"/>
</svg>
