<svg width="24" height="24" viewBox="0 0 24 24" fill="none" xmlns="http://www.w3.org/2000/svg">
<path fill-rule="evenodd" clip-rule="evenodd" d="M5 4.25C4.58579 4.25 4.25 4.58579 4.25 5V7C4.25 7.41421 4.58579 7.75 5 7.75C5.41421 7.75 5.75 7.41421 5.75 7V5.75L18.25 5.75V7C18.25 7.41421 18.5858 7.75 19 7.75C19.4142 7.75 19.75 7.41421 19.75 7V5C19.75 4.58579 19.4142 4.25 19 4.25L5 4.25Z" fill="black"/>
<path fill-rule="evenodd" clip-rule="evenodd" d="M9.25 19C9.25 19.4142 9.58579 19.75 10 19.75H14C14.4142 19.75 14.75 19.4142 14.75 19C14.75 18.5858 14.4142 18.25 14 18.25H12.75L12.75 5C12.75 4.58579 12.4142 4.25 12 4.25C11.5858 4.25 11.25 4.58579 11.25 5L11.25 18.25H10C9.58579 18.25 9.25 18.5858 9.25 19Z" fill="black"/>
</svg>
