<svg width="24" height="24" viewBox="0 0 24 24" fill="none" xmlns="http://www.w3.org/2000/svg">
<path fill-rule="evenodd" clip-rule="evenodd" d="M3.42559 8.51777C3.56809 8.34803 3.77838 8.25 4.00001 8.25H20C20.2216 8.25 20.4319 8.34803 20.5744 8.51777C20.7169 8.68752 20.7771 8.9116 20.7387 9.12988L18.7437 20.4761C18.5125 21.791 17.3703 22.75 16.0353 22.75H7.96475C6.62967 22.75 5.48749 21.7911 5.2563 20.4762L3.26134 9.12988C3.22296 8.91159 3.28309 8.68751 3.42559 8.51777Z" fill="black"/>
<path fill-rule="evenodd" clip-rule="evenodd" d="M10.625 2.75C9.93464 2.75 9.375 3.30964 9.375 4V5.25H14.625V4C14.625 3.30964 14.0654 2.75 13.375 2.75H10.625ZM7.875 5.25V4C7.875 2.48122 9.10622 1.25 10.625 1.25H13.375C14.8938 1.25 16.125 2.48122 16.125 4V5.25H21C21.4142 5.25 21.75 5.58579 21.75 6C21.75 6.41421 21.4142 6.75 21 6.75H3C2.58579 6.75 2.25 6.41421 2.25 6C2.25 5.58579 2.58579 5.25 3 5.25H7.875Z" fill="black"/>
</svg>
