<svg width="20" height="20" viewBox="0 0 20 20" fill="none" xmlns="http://www.w3.org/2000/svg">
<path d="M3.33331 18.3335C3.33331 14.6516 6.31808 11.6668 9.99998 11.6668C13.6819 11.6668 16.6666 14.6516 16.6666 18.3335H15C15 15.5721 12.7614 13.3335 9.99998 13.3335C7.23855 13.3335 4.99998 15.5721 4.99998 18.3335H3.33331ZM9.99998 10.8335C7.23748 10.8335 4.99998 8.596 4.99998 5.8335C4.99998 3.071 7.23748 0.833496 9.99998 0.833496C12.7625 0.833496 15 3.071 15 5.8335C15 8.596 12.7625 10.8335 9.99998 10.8335ZM9.99998 9.16683C11.8416 9.16683 13.3333 7.67516 13.3333 5.8335C13.3333 3.99183 11.8416 2.50016 9.99998 2.50016C8.15831 2.50016 6.66665 3.99183 6.66665 5.8335C6.66665 7.67516 8.15831 9.16683 9.99998 9.16683Z" fill="black"/>
</svg>
