<svg width="24" height="24" viewBox="0 0 24 24" fill="none" xmlns="http://www.w3.org/2000/svg">
<path fill-rule="evenodd" clip-rule="evenodd" d="M12 12.75C9.65279 12.75 7.75 14.6528 7.75 17V18C7.75 18.4142 7.41421 18.75 7 18.75C6.58579 18.75 6.25 18.4142 6.25 18V17C6.25 13.8244 8.82436 11.25 12 11.25C15.1756 11.25 17.75 13.8244 17.75 17V18C17.75 18.4142 17.4142 18.75 17 18.75C16.5858 18.75 16.25 18.4142 16.25 18V17C16.25 14.6528 14.3472 12.75 12 12.75Z" fill="black"/>
<path fill-rule="evenodd" clip-rule="evenodd" d="M12 6.75C10.7574 6.75 9.75 7.75736 9.75 9C9.75 10.2426 10.7574 11.25 12 11.25C13.2426 11.25 14.25 10.2426 14.25 9C14.25 7.75736 13.2426 6.75 12 6.75ZM8.25 9C8.25 6.92893 9.92893 5.25 12 5.25C14.0711 5.25 15.75 6.92893 15.75 9C15.75 11.0711 14.0711 12.75 12 12.75C9.92893 12.75 8.25 11.0711 8.25 9Z" fill="black"/>
<path fill-rule="evenodd" clip-rule="evenodd" d="M12 2.75C6.89137 2.75 2.75 6.89137 2.75 12C2.75 17.1086 6.89137 21.25 12 21.25C17.1086 21.25 21.25 17.1086 21.25 12C21.25 6.89137 17.1086 2.75 12 2.75ZM1.25 12C1.25 6.06294 6.06294 1.25 12 1.25C17.9371 1.25 22.75 6.06294 22.75 12C22.75 17.9371 17.9371 22.75 12 22.75C6.06294 22.75 1.25 17.9371 1.25 12Z" fill="black"/>
</svg>
