<svg width="24" height="24" viewBox="0 0 24 24" fill="none" xmlns="http://www.w3.org/2000/svg">
<path d="M12 1.25C17.9371 1.25 22.75 6.06294 22.75 12C22.75 17.9371 17.9371 22.75 12 22.75C6.06294 22.75 1.25 17.9371 1.25 12C1.25 6.06294 6.06294 1.25 12 1.25ZM12 5.25C9.92893 5.25 8.25 6.92893 8.25 9C8.25 10.1196 8.74158 11.1234 9.51953 11.8105C7.58552 12.7366 6.25 14.7125 6.25 17V18C6.25 18.4142 6.58579 18.75 7 18.75C7.41421 18.75 7.75 18.4142 7.75 18V17C7.75 14.6528 9.65279 12.75 12 12.75C14.3472 12.75 16.25 14.6528 16.25 17V18C16.25 18.4142 16.5858 18.75 17 18.75C17.4142 18.75 17.75 18.4142 17.75 18V17C17.75 14.7122 16.4139 12.7365 14.4795 11.8105C15.2578 11.1234 15.75 10.1198 15.75 9C15.75 6.92893 14.0711 5.25 12 5.25ZM12 6.75C13.2426 6.75 14.25 7.75736 14.25 9C14.25 10.2426 13.2426 11.25 12 11.25C10.7574 11.25 9.75 10.2426 9.75 9C9.75 7.75736 10.7574 6.75 12 6.75Z" fill="black"/>
</svg>
