<svg width="24" height="24" viewBox="0 0 24 24" fill="none" xmlns="http://www.w3.org/2000/svg">
<path d="M9.61611 3.64159C10.6735 1.80302 13.3262 1.80311 14.3837 3.64159L22.4267 17.6299C23.4808 19.4632 22.1576 21.75 20.0429 21.75H3.95693C1.84231 21.7499 0.519189 19.4631 1.57314 17.6299L9.61611 3.64159ZM12.5116 16.4414C12.2037 16.1644 11.7291 16.1892 11.452 16.4971L11.4423 16.5088C11.1655 16.8166 11.1904 17.2903 11.4979 17.5674C11.8058 17.8445 12.2804 17.8196 12.5575 17.5117L12.5673 17.501C12.8444 17.1931 12.8195 16.7185 12.5116 16.4414ZM11.9999 8.24999C11.5857 8.24999 11.2499 8.58577 11.2499 8.99999V13C11.2499 13.4142 11.5857 13.75 11.9999 13.75C12.4141 13.75 12.7499 13.4142 12.7499 13V8.99999C12.7499 8.58577 12.4141 8.24999 11.9999 8.24999Z" fill="black"/>
</svg>
