<svg width="24" height="24" viewBox="0 0 24 24" fill="none" xmlns="http://www.w3.org/2000/svg">
<path fill-rule="evenodd" clip-rule="evenodd" d="M9.61604 3.64147C10.6734 1.80254 13.3266 1.80253 14.384 3.64147L22.427 17.6292C23.4811 19.4625 22.1578 21.75 20.043 21.75H3.95709C1.8423 21.75 0.518933 19.4625 1.5731 17.6292L9.61604 3.64147ZM13.0837 4.38918C12.603 3.5533 11.397 3.5533 10.9164 4.38918L2.87346 18.3769C2.39429 19.2102 2.99582 20.25 3.95709 20.25H20.043C21.0043 20.25 21.6058 19.2102 21.1266 18.3769L13.0837 4.38918Z" fill="black"/>
<path fill-rule="evenodd" clip-rule="evenodd" d="M12 8.25C12.4142 8.25 12.75 8.58579 12.75 9V13C12.75 13.4142 12.4142 13.75 12 13.75C11.5858 13.75 11.25 13.4142 11.25 13V9C11.25 8.58579 11.5858 8.25 12 8.25Z" fill="black"/>
<path fill-rule="evenodd" clip-rule="evenodd" d="M12.5117 16.4414C12.8196 16.7185 12.8446 17.1927 12.5675 17.5006L12.5575 17.5117C12.2804 17.8196 11.8062 17.8446 11.4983 17.5675C11.1904 17.2904 11.1654 16.8162 11.4425 16.5083L11.4525 16.4972C11.7296 16.1893 12.2038 16.1643 12.5117 16.4414Z" fill="black"/>
</svg>
