<svg width="24" height="24" viewBox="0 0 24 24" fill="none" xmlns="http://www.w3.org/2000/svg">
<path fill-rule="evenodd" clip-rule="evenodd" d="M8.64086 8.64124C8.93375 8.34835 9.40863 8.34835 9.70152 8.64124L11.9996 10.9393L14.2977 8.64124C14.5906 8.34835 15.0655 8.34835 15.3584 8.64124C15.6513 8.93414 15.6513 9.40901 15.3584 9.7019L13.0603 12L15.3584 14.2981C15.6513 14.591 15.6513 15.0659 15.3584 15.3588C15.0655 15.6517 14.5906 15.6517 14.2977 15.3588L11.9996 13.0607L9.70152 15.3588C9.40863 15.6517 8.93375 15.6517 8.64086 15.3588C8.34797 15.0659 8.34797 14.591 8.64086 14.2981L10.939 12L8.64086 9.7019C8.34797 9.40901 8.34797 8.93414 8.64086 8.64124Z" fill="black"/>
<path fill-rule="evenodd" clip-rule="evenodd" d="M12 2.75C6.89137 2.75 2.75 6.89137 2.75 12C2.75 17.1086 6.89137 21.25 12 21.25C17.1086 21.25 21.25 17.1086 21.25 12C21.25 6.89137 17.1086 2.75 12 2.75ZM1.25 12C1.25 6.06294 6.06294 1.25 12 1.25C17.9371 1.25 22.75 6.06294 22.75 12C22.75 17.9371 17.9371 22.75 12 22.75C6.06294 22.75 1.25 17.9371 1.25 12Z" fill="black"/>
</svg>
