<svg width="24" height="24" viewBox="0 0 24 24" fill="none" xmlns="http://www.w3.org/2000/svg">
<path d="M12 1.25C17.9371 1.25 22.75 6.06294 22.75 12C22.75 17.9371 17.9371 22.75 12 22.75C6.06294 22.75 1.25 17.9371 1.25 12C1.25 6.06294 6.06294 1.25 12 1.25ZM15.3584 8.6416C15.0655 8.34871 14.5907 8.34871 14.2979 8.6416L12 10.9395L9.70117 8.6416C9.40827 8.34876 8.9335 8.34873 8.64062 8.6416C8.34811 8.9345 8.34791 9.40937 8.64062 9.70215L10.9395 12L8.64062 14.2979C8.34791 14.5906 8.34811 15.0655 8.64062 15.3584C8.9335 15.6513 9.40827 15.6512 9.70117 15.3584L12 13.0605L14.2979 15.3584C14.5907 15.6513 15.0655 15.6513 15.3584 15.3584C15.6512 15.0655 15.6512 14.5907 15.3584 14.2979L13.0605 12L15.3584 9.70215C15.6512 9.4093 15.6512 8.93451 15.3584 8.6416Z" fill="black"/>
</svg>
